<?xml version="1.0" encoding="UTF-8"?>
<svg width="512" height="512" viewBox="0 0 512 512" fill="none" xmlns="http://www.w3.org/2000/svg">
  <rect width="512" height="512" rx="100" fill="#1A73F8"/>
  <path d="M256 120C181.307 120 120 181.307 120 256C120 330.693 181.307 392 256 392C330.693 392 392 330.693 392 256C392 181.307 330.693 120 256 120ZM256 362C197.897 362 150 314.103 150 256C150 197.897 197.897 150 256 150C314.103 150 362 197.897 362 256C362 314.103 314.103 362 256 362Z" fill="white"/>
  <path d="M271 181H241V241H181V271H241V331H271V271H331V241H271V181Z" fill="white"/>
  <path d="M120 80H180V100H120V80Z" fill="#E94E63"/>
  <path d="M332 80H392V100H332V80Z" fill="#E94E63"/>
  <path d="M120 412H180V432H120V412Z" fill="#E94E63"/>
  <path d="M332 412H392V432H332V412Z" fill="#E94E63"/>
</svg>
